<svg xmlns="http://www.w3.org/2000/svg" width="16" height="16" viewBox="0 0 16 16">
    <path fill-rule="nonzero" d="M13.434009,6.22457919 L10.8288688,6.22457919 C10.4904072,6.22457919 10.2134842,6.50150226 10.2134842,6.8399638 C10.2134842,7.17842534 10.4904072,7.45534842 10.8288688,7.45534842 L12.8083439,7.45534842 L12.8083439,14.7374118 L2.75708597,14.7374118 L2.75708597,7.45534842 L4.94170136,7.45534842 C5.2801629,7.45534842 5.55708597,7.17842534 5.55708597,6.8399638 C5.55708597,6.50150226 5.2801629,6.22457919 4.94170136,6.22457919 L2.13145701,6.22457919 C1.79299548,6.22457919 1.52631674,6.53227149 1.52631674,6.87073303 L1.52631674,15.4040543 C1.52631674,15.7425158 1.79299548,15.9681448 2.13145701,15.9681448 L13.434009,15.9681448 C13.7724706,15.9681448 14.0391493,15.7425158 14.0391493,15.4040543 L14.0391493,6.87073303 C14.0391493,6.53227149 13.7724706,6.22457919 13.434009,6.22457919 Z"/>
    <path fill-rule="nonzero" d="M7.6801629,10.8399638 C8.01862443,10.8399638 8.29554751,10.5630407 8.29554751,10.2245792 L8.29554751,1.88611765 L10.9211765,4.22457919 C11.034009,4.32713122 11.1878552,4.37842534 11.3314208,4.37842534 C11.5057919,4.37842534 11.6698824,4.30664253 11.7929593,4.17328507 C12.0185882,3.91688688 11.9980995,3.52713122 11.7416652,3.30150226 L8.20320362,0.15279638 C7.97757466,-0.0420633484 7.64935747,-0.0523438914 7.41344796,0.132271493 C7.30061538,0.183565611 7.20830769,0.275873303 7.14676923,0.378425339 L4.0800905,3.32202715 C3.83393665,3.55793665 3.82369231,3.94765611 4.05956561,4.19380995 C4.29547511,4.4399638 4.68519457,4.45020814 4.93134842,4.21433484 L7.06466968,2.16304072 L7.06466968,10.2245792 C7.06477828,10.5630407 7.34170136,10.8399638 7.6801629,10.8399638 Z"/>
</svg>
