<svg xmlns="http://www.w3.org/2000/svg" width="200" height="200" viewBox="0 0 200 200">
  <g fill="none" fill-rule="evenodd">
    <path fill="#1B1D23" fill-rule="nonzero" d="M7.6916556,0 L192.308344,6.21504185e-16 C194.982901,1.30196178e-16 195.952759,0.278476833 196.930537,0.801398111 C197.908315,1.32431939 198.675681,2.09168511 199.198602,3.06946289 C199.721523,4.04724067 200,5.01709938 200,7.6916556 L200,192.308344 C200,194.982901 199.721523,195.952759 199.198602,196.930537 C198.675681,197.908315 197.908315,198.675681 196.930537,199.198602 C195.952759,199.721523 194.982901,200 192.308344,200 L7.6916556,200 C5.01709938,200 4.04724067,199.721523 3.06946289,199.198602 C2.09168511,198.675681 1.32431939,197.908315 0.801398111,196.930537 C0.278476833,195.952759 3.27538671e-16,194.982901 0,192.308344 L4.14336123e-16,7.6916556 C8.67974518e-17,5.01709938 0.278476833,4.04724067 0.801398111,3.06946289 C1.32431939,2.09168511 2.09168511,1.32431939 3.06946289,0.801398111 C4.04724067,0.278476833 5.01709938,4.91308007e-16 7.6916556,0 Z"/>
    <path fill="#F5F6F9" d="M20,29.3421314 L20,20 L51.2562016,32.7108553 L51.2562016,40.594364 L20,53.3399484 L20,43.9630879 L39.8997817,37.2950982 L42.0182576,36.600516 L39.9345108,35.9059337 L20,29.3421314 Z M83.672951,61.5362175 L52,61.5362175 L52,54 L83.672951,54 L83.672951,61.5362175 Z"/>
  </g>
</svg>
