<svg xmlns="http://www.w3.org/2000/svg" width="400" height="73" viewBox="0 0 400 73">
  <path fill="#1B1D23" fill-rule="evenodd" d="M25.2765199,51.3696088 C23.9155649,53.3739244 22.2762573,54.9451852 20.358548,56.0834385 C18.4408387,57.2216918 16.3437622,57.7908099 14.0672556,57.7908099 C11.9887061,57.7908099 10.0833977,57.4691344 8.35127311,56.8257739 C6.61914854,56.1824133 5.13449261,55.1617124 3.89726078,53.7636404 C2.66002895,52.3655684 1.70118866,50.5839813 1.02071116,48.4188256 C0.34023365,46.2536699 0,43.649336 0,40.6057457 L0,16.8510133 L10.3184619,16.8510133 L10.3184619,40.6799792 C10.3184619,42.3131252 10.4359971,43.686432 10.6710712,44.7999406 C10.9061452,45.9134493 11.2834953,46.8104289 11.8031327,47.4909064 C12.32277,48.1713839 13.0032373,48.6600831 13.844555,48.9570188 C14.6858726,49.2539544 15.7127596,49.40242 16.9252468,49.40242 C18.9790517,49.40242 20.6492896,49.0126978 21.9360107,48.2332418 C23.2227318,47.4537857 24.2001303,46.3835962 24.8682355,45.0226412 L24.8682355,16.8510133 L35.2238141,16.8510133 L35.2238141,57.0113577 L25.8703882,57.0113577 L25.2765199,51.3696088 Z M70.7275947,7.01506941 L70.7275947,16.8510133 L85.7227695,16.8510133 L85.7227695,24.459951 L70.7275947,24.459951 L70.7275947,41.7192488 C70.7275947,43.1791823 70.8946185,44.3978374 71.2286711,45.3752505 C71.5627237,46.3526637 72.0390508,47.132108 72.6576667,47.713607 C73.2762826,48.295106 74.0247967,48.7095724 74.9032313,48.9570188 C75.7816659,49.2044651 76.7652504,49.3281865 77.8540144,49.3281865 C78.6458428,49.3281865 79.4562175,49.2910701 80.2851628,49.2168362 C81.1141082,49.1426023 81.9059247,49.0498113 82.6606361,48.9384604 C83.4153475,48.8271095 84.1205591,48.7095743 84.7762919,48.5858511 C85.4320248,48.4621279 85.9949568,48.3384066 86.4651049,48.2146834 L87.4672577,55.3039863 C86.7496632,55.7246452 85.9083582,56.0896231 84.9433174,56.398931 C83.9782766,56.708239 82.9513895,56.9618677 81.8626255,57.1598248 C80.7738615,57.3577819 79.6418114,57.5124336 78.4664411,57.6237844 C77.2910709,57.7351353 76.1342765,57.7908099 74.9960232,57.7908099 C72.7937505,57.7908099 70.7956511,57.5000648 69.001665,56.9185658 C67.2076788,56.3370668 65.6735343,55.4339012 64.3991856,54.2090416 C63.1248368,52.9841821 62.1412522,51.4252934 61.4484024,49.5323287 C60.7555526,47.639364 60.4091328,45.3690776 60.4091328,42.7214015 L60.4091328,24.459951 L51.2412908,24.459951 L51.2412908,16.8510133 L60.4091328,16.8510133 L60.4091328,7.01506941 L70.7275947,7.01506941 Z M106.676777,16.8510133 L128.538554,16.8510133 L128.538554,48.6229679 L139.413767,48.6229679 L139.413767,57.0113577 L106.676777,57.0113577 L106.676777,48.6229679 L118.108742,48.6229679 L118.108742,25.2765199 L106.676777,25.2765199 L106.676777,16.8510133 Z M117.366406,6.56966818 C117.366406,5.7778398 117.508686,5.04169791 117.793249,4.3612204 C118.077812,3.68074289 118.479907,3.09925265 118.999544,2.61673224 C119.519181,2.13421183 120.143974,1.75686178 120.873941,1.48467077 C121.603908,1.21247977 122.414282,1.07638631 123.305089,1.07638631 C125.136192,1.07638631 126.589918,1.58982982 127.66631,2.61673224 C128.742701,3.64363466 129.280889,4.9612668 129.280889,6.56966818 C129.280889,8.17806956 128.742701,9.49570169 127.66631,10.5226041 C126.589918,11.5495065 125.136192,12.06295 123.305089,12.06295 C122.414282,12.06295 121.603908,11.9268566 120.873941,11.6546656 C120.143974,11.3824746 119.519181,11.0051245 118.999544,10.5226041 C118.479907,10.0400837 118.077812,9.45859346 117.793249,8.77811595 C117.508686,8.09763845 117.366406,7.36149655 117.366406,6.56966818 Z M158.215002,0 L180.670647,0 L180.670647,48.6229679 L192.176845,48.6229679 L192.176845,57.0113577 L158.215002,57.0113577 L158.215002,48.6229679 L170.240835,48.6229679 L170.240835,8.42550664 L158.215002,8.42550664 L158.215002,0 Z M234.101827,45.9876772 C234.101827,45.3690613 233.959548,44.8246875 233.674984,44.3545394 C233.390421,43.8843913 232.883164,43.4451806 232.153197,43.0368941 C231.42323,42.6286076 230.452018,42.2512575 229.23953,41.9048326 C228.027043,41.5584077 226.492899,41.211988 224.637051,40.8655631 C222.286311,40.395415 220.139746,39.8077387 218.197292,39.1025165 C216.254838,38.3972944 214.590786,37.5436172 213.205086,36.5414594 C211.819386,35.5393016 210.736825,34.3825072 209.957369,33.0710415 C209.177913,31.7595758 208.788191,30.2501756 208.788191,28.5427956 C208.788191,26.884905 209.184099,25.301272 209.975927,23.7918492 C210.767755,22.2824263 211.905992,20.9586081 213.39067,19.8203548 C214.875348,18.6821016 216.681679,17.7789359 218.809718,17.1108307 C220.937757,16.4427255 223.337951,16.1086779 226.010371,16.1086779 C228.806515,16.1086779 231.318058,16.4365394 233.545076,17.0922723 C235.772093,17.7480052 237.658843,18.6511708 239.205383,19.8017965 C240.751923,20.9524221 241.933461,22.3195427 242.750034,23.9031995 C243.566607,25.4868562 243.974888,27.2065827 243.974888,29.0624304 L233.656426,29.0624304 C233.656426,27.5035183 233.025447,26.1982583 231.763471,25.1466112 C230.501494,24.0949642 228.583814,23.5691485 226.010371,23.5691485 C223.610142,23.5691485 221.797624,24.0021732 220.572765,24.8682355 C219.347905,25.7342978 218.735485,26.7983012 218.735485,28.0602776 C218.735485,28.6541489 218.859206,29.2047088 219.106652,29.7119739 C219.354099,30.2192389 219.793309,30.6770078 220.424298,31.0852943 C221.055286,31.4935808 221.915149,31.8647448 223.003913,32.1987974 C224.092677,32.53285 225.478356,32.8235951 227.160991,33.0710415 C229.585966,33.4669557 231.837694,33.9742131 233.916243,34.592829 C235.994793,35.211445 237.788752,36.0094475 239.298175,36.9868607 C240.807598,37.9642738 241.989136,39.1519986 242.842826,40.5500705 C243.696516,41.9481425 244.123355,43.6121943 244.123355,45.542276 C244.123355,47.3238898 243.696516,48.9631974 242.842826,50.4602479 C241.989136,51.9572985 240.776667,53.2501863 239.205383,54.3389503 C237.634099,55.4277143 235.734976,56.2752054 233.507959,56.881449 C231.280942,57.4876926 228.794143,57.7908099 226.047488,57.7908099 C223.028643,57.7908099 220.362448,57.3949016 218.048824,56.6030733 C215.735201,55.8112449 213.798962,54.7781718 212.24005,53.503823 C210.681138,52.2294742 209.499599,50.7819347 208.695399,49.161161 C207.891198,47.5403873 207.489104,45.9134519 207.489104,44.2803058 L217.325047,44.2803058 C217.399281,45.3690699 217.696213,46.3031659 218.21585,47.0826219 C218.735487,47.862078 219.403582,48.4930568 220.220155,48.9755772 C221.036728,49.4580976 221.970824,49.8107034 223.022472,50.0334051 C224.074119,50.2561068 225.15668,50.367456 226.270189,50.367456 C228.818886,50.367456 230.761311,49.9591756 232.097522,49.1426026 C233.433732,48.3260296 234.101827,47.2743983 234.101827,45.9876772 Z M270.756228,51.0355579 C270.756228,50.070517 270.917065,49.1735374 271.238746,48.3445921 C271.560426,47.5156468 272.030567,46.7980631 272.649183,46.1918195 C273.267799,45.5855759 274.022499,45.1030627 274.913306,44.7442655 C275.804113,44.3854682 276.806256,44.2060723 277.919764,44.2060723 C279.033273,44.2060723 280.035416,44.3854682 280.926222,44.7442655 C281.817029,45.1030627 282.565543,45.5855759 283.171787,46.1918195 C283.778031,46.7980631 284.248172,47.5156468 284.582224,48.3445921 C284.916277,49.1735374 285.083301,50.070517 285.083301,51.0355579 C285.083301,51.9758541 284.916277,52.8542755 284.582224,53.6708485 C284.248172,54.4874215 283.778031,55.1988191 283.171787,55.8050627 C282.565543,56.4113063 281.817029,56.8876334 280.926222,57.2340583 C280.035416,57.5804833 279.033273,57.7536931 277.919764,57.7536931 C276.806256,57.7536931 275.804113,57.5804833 274.913306,57.2340583 C274.022499,56.8876334 273.267799,56.4113063 272.649183,55.8050627 C272.030567,55.1988191 271.560426,54.4874215 271.238746,53.6708485 C270.917065,52.8542755 270.756228,51.9758541 270.756228,51.0355579 Z M311.419239,36.6342514 C311.419239,33.590661 311.796589,30.8069312 312.551301,28.2829782 C313.306012,25.7590253 314.388574,23.5939021 315.799018,21.7875436 C317.209462,19.9811851 318.916817,18.5831341 320.921132,17.5933487 C322.925448,16.6035632 325.189548,16.1086779 327.713501,16.1086779 C330.064241,16.1086779 332.080899,16.5045861 333.763534,17.2964145 C335.44617,18.0882429 336.881337,19.214107 338.06908,20.6740405 L338.477364,16.8510133 L347.867907,16.8510133 L347.867907,55.7122708 C347.867907,58.4341808 347.403952,60.8591188 346.476028,62.9871576 C345.548104,65.1151963 344.24903,66.9091556 342.578767,68.3690892 C340.908504,69.8290227 338.904219,70.9363286 336.56585,71.69104 C334.227482,72.4457514 331.647893,72.8231015 328.827004,72.8231015 C327.614517,72.8231015 326.315443,72.6993801 324.929743,72.4519338 C323.544044,72.2044874 322.170737,71.8209513 320.809782,71.3013139 C319.448827,70.7816766 318.162125,70.1197675 316.949638,69.3155668 C315.737151,68.5113661 314.697892,67.5525258 313.831829,66.4390171 L318.471425,60.1662831 C319.782891,61.6509613 321.267547,62.7830115 322.925438,63.5624675 C324.583328,64.3419236 326.377288,64.7316458 328.307369,64.7316458 C331.202492,64.7316458 333.460406,63.9583875 335.08118,62.4118477 C336.701953,60.8653079 337.512328,58.6692543 337.512328,55.8236211 L337.512328,53.5223814 C336.299841,54.8585918 334.883232,55.8978509 333.262458,56.64019 C331.641684,57.3825291 329.767306,57.7536931 327.639267,57.7536931 C325.140059,57.7536931 322.894517,57.2402496 320.902574,56.2133472 C318.910631,55.1864448 317.209462,53.7698356 315.799018,51.9634771 C314.388574,50.1571186 313.306012,48.0105536 312.551301,45.5237176 C311.796589,43.0368816 311.419239,40.3335706 311.419239,37.4137035 L311.419239,36.6342514 Z M321.774818,37.4137035 C321.774818,39.0963388 321.941842,40.6614136 322.275894,42.1089748 C322.609947,43.5565361 323.12339,44.8184936 323.81624,45.8948853 C324.50909,46.971277 325.387511,47.8187681 326.451531,48.437384 C327.51555,49.0559999 328.777508,49.3653032 330.237441,49.3653032 C332.0438,49.3653032 333.534642,49.0188835 334.710012,48.3260337 C335.885382,47.6331839 336.819478,46.6681575 337.512328,45.4309257 L337.512328,28.4314453 C336.819478,27.1694689 335.885382,26.1982564 334.710012,25.5177789 C333.534642,24.8373014 332.068544,24.4970678 330.311675,24.4970678 C328.851741,24.4970678 327.589784,24.8125572 326.525764,25.4435454 C325.461745,26.0745336 324.577137,26.9405829 323.871915,28.0417192 C323.166693,29.1428556 322.640878,30.4295574 322.294453,31.9018633 C321.948028,33.3741691 321.774818,34.9516161 321.774818,36.6342514 L321.774818,37.4137035 Z M363.551332,36.6342514 C363.551332,33.590661 363.928683,30.8069312 364.683394,28.2829782 C365.438105,25.7590253 366.520667,23.5939021 367.931111,21.7875436 C369.341556,19.9811851 371.04891,18.5831341 373.053225,17.5933487 C375.057541,16.6035632 377.321641,16.1086779 379.845594,16.1086779 C382.196335,16.1086779 384.212992,16.5045861 385.895628,17.2964145 C387.578263,18.0882429 389.01343,19.214107 390.201173,20.6740405 L390.609457,16.8510133 L400,16.8510133 L400,55.7122708 C400,58.4341808 399.536045,60.8591188 398.608121,62.9871576 C397.680197,65.1151963 396.381123,66.9091556 394.71086,68.3690892 C393.040597,69.8290227 391.036312,70.9363286 388.697944,71.69104 C386.359576,72.4457514 383.779986,72.8231015 380.959097,72.8231015 C379.74661,72.8231015 378.447536,72.6993801 377.061837,72.4519338 C375.676137,72.2044874 374.30283,71.8209513 372.941875,71.3013139 C371.58092,70.7816766 370.294218,70.1197675 369.081731,69.3155668 C367.869244,68.5113661 366.829985,67.5525258 365.963923,66.4390171 L370.603519,60.1662831 C371.914984,61.6509613 373.39964,62.7830115 375.057531,63.5624675 C376.715422,64.3419236 378.509381,64.7316458 380.439463,64.7316458 C383.334585,64.7316458 385.592499,63.9583875 387.213273,62.4118477 C388.834047,60.8653079 389.644421,58.6692543 389.644421,55.8236211 L389.644421,53.5223814 C388.431934,54.8585918 387.015325,55.8978509 385.394551,56.64019 C383.773778,57.3825291 381.899399,57.7536931 379.771361,57.7536931 C377.272152,57.7536931 375.02661,57.2402496 373.034667,56.2133472 C371.042724,55.1864448 369.341556,53.7698356 367.931111,51.9634771 C366.520667,50.1571186 365.438105,48.0105536 364.683394,45.5237176 C363.928683,43.0368816 363.551332,40.3335706 363.551332,37.4137035 L363.551332,36.6342514 Z M373.906911,37.4137035 C373.906911,39.0963388 374.073935,40.6614136 374.407988,42.1089748 C374.74204,43.5565361 375.255484,44.8184936 375.948333,45.8948853 C376.641183,46.971277 377.519605,47.8187681 378.583624,48.437384 C379.647643,49.0559999 380.909601,49.3653032 382.369535,49.3653032 C384.175893,49.3653032 385.666735,49.0188835 386.842105,48.3260337 C388.017476,47.6331839 388.951572,46.6681575 389.644421,45.4309257 L389.644421,28.4314453 C388.951572,27.1694689 388.017476,26.1982564 386.842105,25.5177789 C385.666735,24.8373014 384.200637,24.4970678 382.443768,24.4970678 C380.983835,24.4970678 379.721877,24.8125572 378.657858,25.4435454 C377.593838,26.0745336 376.709231,26.9405829 376.004009,28.0417192 C375.298786,29.1428556 374.772971,30.4295574 374.426546,31.9018633 C374.080121,33.3741691 373.906911,34.9516161 373.906911,36.6342514 L373.906911,37.4137035 Z"/>
</svg>
